<?xml version="1.0" encoding="UTF-8"?><svg xmlns="http://www.w3.org/2000/svg" viewBox="0 0 729.95 152.01"><g id="a"/><g id="b"><g id="c"><g><path d="M118.37,95.23c.2-10.74,1.46-20.92,5.98-30.43,6.42-13.51,17.38-21.42,31.69-24.69,13.17-3.01,26.43-2.95,39.51,.74,16.87,4.76,27.71,15.7,32.21,32.56,4.25,15.94,4.14,31.93-1.44,47.58-5.75,16.12-17.71,25.4-34.09,28.98-13.44,2.94-26.95,2.8-40.22-1.28-15.29-4.71-25.24-14.86-30.19-29.99-2.53-7.74-3.26-15.75-3.44-23.48Zm30.83-.7c0,5.08,.28,9.92,1.17,14.55,1.71,8.86,5.97,15.87,15.37,18.32,2.55,.67,5.24,.92,7.88,1.06,13.23,.7,21.8-5.35,24.88-18.08,2.59-10.73,2.5-21.6-.38-32.29-2.07-7.7-6.61-13.48-14.68-15.43-3.74-.9-7.76-1.34-11.58-1.07-12.06,.84-18.28,6.09-21.1,17.85-1.21,5.04-1.56,10.28-1.56,15.09Z"/><path d="M276.27,95.23c.2-10.74,1.46-20.92,5.98-30.43,6.42-13.51,17.38-21.42,31.69-24.69,13.17-3.01,26.43-2.95,39.51,.74,16.87,4.76,27.71,15.7,32.21,32.56,4.25,15.94,4.14,31.93-1.44,47.58-5.75,16.12-17.71,25.4-34.09,28.98-13.44,2.94-26.95,2.8-40.22-1.28-15.29-4.71-25.24-14.86-30.19-29.99-2.53-7.74-3.26-15.75-3.44-23.48Zm30.83-.7c0,5.08,.28,9.92,1.17,14.55,1.71,8.86,5.97,15.87,15.37,18.32,2.55,.67,5.24,.92,7.88,1.06,13.23,.7,21.8-5.35,24.88-18.08,2.59-10.73,2.5-21.6-.38-32.29-2.07-7.7-6.61-13.48-14.68-15.43-3.74-.9-7.76-1.34-11.58-1.07-12.06,.84-18.28,6.09-21.1,17.85-1.21,5.04-1.56,10.28-1.56,15.09Z"/><path d="M505.08,149.6h-29.52V40.54h29.39v17.14c.79-.94,1.21-1.34,1.51-1.81,5.68-9.24,13.96-14.78,24.55-16.76,9.12-1.71,18.23-1.61,27.04,1.74,10.5,4,15.87,12.2,17.89,22.8,.74,3.89,1.06,7.92,1.07,11.89,.1,24.04,.05,48.08,.05,72.12,0,.57-.05,1.14-.09,1.87h-29.45c0-.99,0-1.96,0-2.93,0-21.46,.06-42.92-.06-64.38-.02-3.52-.53-7.14-1.46-10.54-1.37-4.97-5.11-7.84-10.05-9.05-5.86-1.44-11.73-1.34-17.49,.44-7.35,2.28-12.64,9.26-12.9,17.53-.35,11.05-.38,22.11-.45,33.17-.07,10.98-.02,21.96-.02,32.94v2.9Z"/><path d="M108.28,84.24h-29.04c-.26-3.27-.79-5.92-1.56-8.76-1.87-6.91-6.31-11.37-13.33-13.06-4.91-1.18-9.88-1.33-14.85-.38-9.71,1.85-14.92,8.22-17.01,17.38-2.42,10.6-2.47,21.29,.22,31.86,3.42,13.41,12.58,17.35,24.04,17.17,4.86-.08,9.65-.72,13.79-3.57,5.35-3.7,7.41-9.11,8.33-15.18,.22-1.48,.37-3.04,.37-4.79h29.04c0,7.26-1.38,14.53-4.27,21.32-5.68,13.35-16.28,20.75-30.04,23.77-12.85,2.83-25.79,2.7-38.54-.87-15.42-4.31-26.23-13.92-31.27-29.17-5.65-17.08-5.64-34.36,.54-51.34,5.74-15.77,17.58-24.9,33.62-28.58,12.91-2.96,25.95-2.98,38.76,.81,17.15,5.08,27.33,16.68,30.37,34.22,.51,2.93,.83,5.22,.83,9.15Z"/><path d="M700.99,104.86h28.79c.14,7.31-1.12,14.26-3.84,20.91-5.29,12.93-15.25,20.52-28.52,23.78-14.33,3.52-28.72,3.36-42.83-1.23-14.12-4.59-23.92-14.04-28.6-28.08-5.66-16.96-5.71-34.17,.26-51.1,5.64-16,17.5-25.34,33.74-29.07,12.82-2.95,25.73-2.87,38.51,.69,17.05,4.74,28.53,17.95,30.7,35.44,.32,2.61,.49,5.23,.75,8.01h-28.85c-.46-2.59-.79-5.21-1.4-7.76-2.1-8.8-8.47-14.18-17.51-14.64-3.63-.18-7.35-.27-10.92,.29-8.01,1.27-13.54,6.04-15.91,13.73-4,13.03-4.15,26.22,.37,39.17,2.9,8.31,9.36,12.38,17.97,13.23,4.92,.49,9.83,.35,14.53-1.32,7.64-2.72,10.76-8.9,12.02-16.35,.31-1.79,.46-3.61,.71-5.7Z"/><path d="M238.74,0h29.53V149.51h-29.53V0Z"/><path d="M426.13,53.62c2.52-2.85,4.66-5.7,7.24-8.08,3.19-2.95,7.24-4.59,11.56-4.73,7.8-.24,15.62-.07,23.63-.07v26.93c-.92,0-1.8,0-2.69,0-10.07,0-20.15-.02-30.22,0-6.78,.02-9.32,2.56-9.33,9.35-.02,23.12,0,46.23,0,69.35v3.13h-29.67V40.54h29.49v13.07Z"/><path d="M584.06,40.54h29.57v108.98h-29.57V40.54Z"/><path d="M584.1,.05h29.66V26.17h-29.66V.05Z"/></g></g></g></svg>