<?xml version="1.0" encoding="UTF-8"?>
<svg id="Layer_2" data-name="Layer 2" xmlns="http://www.w3.org/2000/svg" viewBox="0 0 1200 1520">
  <defs>
    <style>
      .cls-1 {
        fill: #f2f2f2;
      }

      .cls-2 {
        fill: #44be00;
      }
    </style>
  </defs>
  <g id="Post">
    <g>
      <rect class="cls-1" width="1200" height="1520"/>
      <g>
        <path d="m348.7,700.85h3.64c1.14,0,1.72.57,1.72,1.71v105.01c0,1.14-.57,1.71-1.72,1.71h-3.64c-7.38,0-13.4-2.89-18.03-8.67-8.99,8.21-19.93,12.31-32.81,12.31-15.95,0-29.58-5.65-40.9-16.97-11.31-11.31-16.96-24.94-16.96-40.89s5.65-29.63,16.96-40.94c11.32-11.27,24.94-16.91,40.9-16.91,12.88,0,23.82,4.1,32.81,12.31,4.64-5.78,10.65-8.67,18.03-8.67m-71.55,33.5c-5.71,5.67-8.56,12.58-8.56,20.71s2.86,15,8.56,20.71c5.7,5.71,12.61,8.56,20.71,8.56s15-2.86,20.71-8.56c5.71-5.71,8.56-12.61,8.56-20.71s-2.86-15.04-8.56-20.71c-5.71-5.71-12.62-8.56-20.71-8.56s-15.01,2.86-20.71,8.56"/>
        <path d="m373.27,737.72c0-12.27,4.08-22.15,12.26-29.65,7.92-7.24,18.14-10.86,30.67-10.86,4.06,0,7.97.41,11.71,1.23.9.21,1.34.77,1.34,1.65v26.76c0,.72-.3,1.23-.91,1.55-.65.32-1.26.29-1.82-.1-2.43-1.68-5.87-2.52-10.33-2.52-5.18,0-8.96,1.09-11.35,3.27-2,1.86-2.99,4.74-2.99,8.67v69.85c0,1.14-.57,1.71-1.71,1.71h-25.15c-1.14,0-1.72-.57-1.72-1.71v-69.85Z"/>
        <path d="m542.87,700.85h3.64c1.14,0,1.72.57,1.72,1.71v105.01c0,1.14-.57,1.71-1.72,1.71h-3.64c-7.38,0-13.4-2.89-18.03-8.67-8.99,8.21-19.93,12.31-32.81,12.31-15.95,0-29.58-5.65-40.9-16.97-11.31-11.31-16.96-24.94-16.96-40.89s5.65-29.63,16.96-40.94c11.32-11.27,24.94-16.91,40.9-16.91,12.88,0,23.82,4.1,32.81,12.31,4.64-5.78,10.65-8.67,18.03-8.67m-71.55,33.5c-5.71,5.67-8.56,12.58-8.56,20.71s2.86,15,8.56,20.71c5.7,5.71,12.61,8.56,20.71,8.56s15-2.86,20.71-8.56c5.71-5.71,8.56-12.61,8.56-20.71s-2.86-15.04-8.56-20.71c-5.71-5.71-12.62-8.56-20.71-8.56s-15.01,2.86-20.71,8.56"/>
        <path d="m644.66,662.1c0-1.14.57-1.71,1.71-1.71h25.15c1.14,0,1.72.57,1.72,1.71v145.47c0,1.14-.57,1.71-1.72,1.71h-3.64c-7.38,0-13.4-2.89-18.03-8.67-8.99,8.21-19.93,12.31-32.81,12.31-15.95,0-29.58-5.65-40.9-16.97-11.31-11.31-16.96-24.94-16.96-40.89s5.65-29.63,16.96-40.94c11.32-11.27,24.94-16.91,40.9-16.91,10.38,0,19.58,2.74,27.61,8.24v-43.35Zm-48.33,72.25c-5.71,5.67-8.56,12.58-8.56,20.71s2.86,15,8.56,20.71c5.7,5.71,12.61,8.56,20.71,8.56s15-2.86,20.71-8.56c5.71-5.71,8.56-12.61,8.56-20.71s-2.86-15.04-8.56-20.71c-5.71-5.71-12.62-8.56-20.71-8.56s-15.01,2.86-20.71,8.56"/>
        <rect x="811.37" y="660.39" width="28.58" height="148.89" rx="1.71" ry="1.71"/>
        <path d="m859.17,702.56c0-1.14.57-1.71,1.72-1.71h18.3c2.36,0,4.37.84,6.05,2.51,1.67,1.67,2.51,3.69,2.51,6.05v62.94c0,3.28,1.23,5.81,3.69,7.59,3.99,2.93,10.04,4.39,18.14,4.39s14.11-1.46,18.14-4.39c2.46-1.78,3.69-4.32,3.69-7.59v-69.79c0-1.14.57-1.71,1.72-1.71h25.15c1.14,0,1.71.57,1.71,1.71v69.79c0,12.95-5.17,23.19-15.52,30.72-9.03,6.57-20.66,9.85-34.89,9.85s-25.87-3.28-34.9-9.85c-10.35-7.53-15.52-17.77-15.52-30.72v-69.79Z"/>
        <path class="cls-2" d="m790.56,776.09c6.84-9.6,10.28-20.59,10.28-33,0-15.98-5.65-29.63-16.96-40.94-11.32-11.27-24.94-16.91-40.89-16.91s-29.58,5.64-40.89,16.91c-11.31,11.32-16.96,24.96-16.96,40.94,0,12.41,3.44,23.4,10.28,33l24.92,56.2v14.38c0,7.12,5.82,12.94,12.94,12.94h19.42c7.12,0,12.94-5.83,12.94-12.94v-14.38l24.92-56.2Zm-33.86,23.32l-8.58,29.94h-10.28l-8.58-29.94c4.37,1.02,8.94,1.54,13.72,1.54s9.35-.52,13.71-1.54m-33.93,29.94l-19.71-44.44c6.66,6.4,14.11,10.89,22.34,13.45l8.88,30.99h-11.51Zm28.91,0l8.88-30.99c8.23-2.56,15.67-7.05,22.34-13.45l-19.71,44.44h-11.51Z"/>
      </g>
    </g>
  </g>
</svg>