<?xml version="1.0" encoding="UTF-8"?>
<svg width="1060px" height="495px" viewBox="0 0 1060 495" version="1.1" xmlns="http://www.w3.org/2000/svg" xmlns:xlink="http://www.w3.org/1999/xlink">
    <title>Group 15</title>
    <g id="Dektop" stroke="none" stroke-width="1" fill="none" fill-rule="evenodd">
        <g id="Services_Desktop-Copy-6" transform="translate(-190.000000, -6591.000000)">
            <g id="Group-3" transform="translate(0.000000, 6092.000000)">
                <g id="Group-15" transform="translate(189.999582, 498.998538)">
                    <polygon id="Fill-1" fill="#4D28A0" points="424.897008 73.0014618 363.591501 84.342999 358.000418 144.607746 645.585969 431.001462 710.000418 359.43079"></polygon>
                    <path d="M1042.76391,248.152813 L962.942003,249.577057 C962.446371,285.893193 948.98901,320.609665 924.832682,347.651508 L912.443964,360.022801 C884.845396,384.606674 849.274884,398.132816 812.152645,398.132816 C774.656068,398.132816 738.313875,384.439607 710.602378,359.385859 L654.650291,303.395524 L601.644812,318.341734 L593.099859,378.220547 L646.128342,430.735893 C691.713974,471.951262 750.543657,495.002297 812.152645,495.002297 C873.759542,495.002297 932.796261,472.302102 978.383984,431.086733 L994.336237,415.240452 L995.994619,413.498781 C1037.12374,368.138068 1059.83291,309.439164 1059.99394,248.152813 L1042.76391,248.152813 Z" id="Fill-2" fill="#BA3920"></path>
                    <path d="M0.0292778627,244.097894 C-0.288596075,265.720509 2.21675246,287.460071 7.6645262,308.786142 L7.6645262,308.790319 C7.88201889,309.640271 8.12042435,310.481869 8.34628215,311.329733 L66.8727297,340.576857 L101.866049,285.223464 C101.866049,285.223464 96.9557336,259.488919 97.0414759,246.745902 L97.3384371,246.476507 L97.0393846,246.466066 C97.0414759,246.238437 97.0352021,246.010809 97.0372934,245.78318 C97.0519323,244.59283 97.0791189,243.402479 97.1209444,242.214217 C97.171135,240.833828 97.2380559,239.45135 97.3279807,238.07305 C97.3718975,237.358839 97.4220881,236.646717 97.4764613,235.932507 C97.6270332,234.021681 97.8027004,232.112943 98.0264669,230.208382 C98.0431971,230.076817 98.057836,229.945252 98.0724749,229.813687 C100.262041,211.672326 105.770462,193.915218 114.501538,177.413199 C131.84449,144.63679 160.440596,119.549629 195.099312,106.666693 L211.842067,101.508507 C247.071701,92.8147711 282.690312,96.1477528 315.075811,112.67692 L316.627537,113.418279 C321.81181,116.072552 326.853877,119.019192 331.718184,122.272817 L395.242781,48.5128443 C352.77315,17.0875877 301.277572,0.000835333769 247.84129,0.000835333769 C186.232302,0.000835333769 127.197675,22.6989423 81.6057684,63.9205758 C78.5190452,66.7126789 75.4825126,69.5966688 72.5840042,72.4911003 C69.6917696,75.3792668 66.8037176,78.4094401 63.9972253,81.5043518 C26.7076846,122.634098 4.55898148,174.725513 0.629474048,229.767743 C0.629474048,229.782362 0.627382772,229.794892 0.627382772,229.807422 C0.556279391,230.791027 0.503997494,231.77881 0.445441768,232.762415 C0.380612215,233.825377 0.31160011,234.886251 0.261409488,235.947125 C0.257226937,236.05363 0.253044385,236.158047 0.248861833,236.264552 C0.135932934,238.709992 0.0836510363,241.157519 0.0439167941,243.607136 L0.0292778627,244.097894 Z" id="Fill-11" fill="#46ACC6"></path>
                    <path d="M561.592905,285.684151 L711.859444,134.977408 C739.458012,110.395623 775.030615,96.8694812 812.150763,96.8694812 C849.649431,96.8694812 885.562912,110.667107 913.272318,135.720855 C915.17747,137.445819 917.042889,139.216727 918.81629,140.987635 C920.583419,142.750189 922.356821,144.612983 924.084214,146.519632 C949.177434,174.19424 962.994494,210.057208 962.994494,247.501044 C962.994494,247.674376 962.986129,248.7979 962.981946,249.365927 L962.75818,249.370103 L962.979855,249.564319 C962.979855,249.610262 962.979855,249.654117 962.979855,249.675 L963.10324,249.672912 L1010.58092,282.660627 L1059.63654,248.046099 L1059.79547,248.046099 C1059.79756,247.931241 1060.00042,247.615903 1060.00042,247.501044 C1060.00042,185.978712 1037.26825,127.029207 995.992737,81.4993397 C993.190427,78.4106931 990.302375,75.3784315 987.41014,72.490265 C984.509541,69.5958335 981.475099,66.7118436 978.382102,63.9155638 C932.79647,22.698107 873.759751,0 812.150763,0 C750.543866,0 691.507147,22.698107 645.921515,63.9155638 L493.059702,212.688509 L561.592905,285.684151 Z" id="Fill-5" fill="#E69C37"></path>
                    <path d="M493.060121,212.688509 L361.433124,346.742873 L359.778925,348.478279 C358.045257,350.389105 356.271855,352.2519 354.506818,354.016542 C352.73969,355.779096 350.874272,357.550004 348.960754,359.281233 C343.778573,363.965367 338.307795,368.256895 332.594429,372.139108 C332.452222,372.235172 332.303742,372.32497 332.159444,372.423122 C330.54707,373.509056 328.913783,374.561576 327.263767,375.58486 C326.655205,375.96076 326.036188,376.319954 325.423444,376.689589 C324.208413,377.41633 322.987107,378.132628 321.755346,378.825955 C321.065225,379.212297 320.373013,379.592374 319.678709,379.968274 C318.457404,380.630276 317.223551,381.271395 315.985516,381.897895 C315.32049,382.234117 314.659647,382.574516 313.99253,382.900296 C312.493085,383.631213 310.979001,384.330805 309.456552,385.011602 C309.052936,385.191199 308.655594,385.385414 308.247795,385.562922 C306.334277,386.398256 304.401938,387.187646 302.454961,387.943623 C301.875677,388.167075 301.29012,388.371732 300.710837,388.588919 C299.30759,389.111002 297.89807,389.620556 296.480185,390.102961 C295.754513,390.349385 295.024657,390.583278 294.294802,390.81926 C292.975207,391.24528 291.647247,391.654594 290.313013,392.043024 C289.583157,392.256034 288.851211,392.471132 288.117173,392.673701 C286.644915,393.080926 285.1622,393.456826 283.675303,393.820197 C283.100202,393.960115 282.529284,394.112563 281.954183,394.246217 C279.902641,394.71818 277.838552,395.154642 275.766097,395.543072 C275.337386,395.622429 274.906583,395.685079 274.477872,395.760259 C272.815307,396.056803 271.146469,396.330375 269.469266,396.572621 C268.749867,396.67495 268.024194,396.764748 267.300613,396.856635 C265.882728,397.040408 264.46066,397.207475 263.03441,397.349482 C262.271094,397.42675 261.507778,397.499842 260.742371,397.56458 C259.268022,397.68988 257.78949,397.788032 256.308866,397.869477 C255.633384,397.907067 254.959993,397.955099 254.28242,397.984335 C252.140954,398.074134 249.995304,398.132607 247.84129,398.132607 C210.719052,398.132607 175.146449,384.606465 147.549972,360.022592 L135.161253,347.651299 C110.687051,320.254439 97.171135,284.986647 97.0121981,248.152605 L0,248.152605 C0.161028245,309.438955 22.8701933,368.13786 63.9972253,413.498572 L79.8679182,429.430475 L81.609951,431.086525 C127.197675,472.301893 186.232302,495.002088 247.84129,495.002088 C249.82382,495.002088 251.804258,494.97494 253.780514,494.928997 C254.41417,494.914378 255.047827,494.883053 255.681484,494.864258 C257.024083,494.820403 258.366682,494.780725 259.705099,494.715987 C260.455867,494.680485 261.202452,494.628276 261.95322,494.58651 C263.172434,494.517595 264.393739,494.450768 265.612953,494.363058 C266.401364,494.308761 267.185592,494.237758 267.971912,494.17302 C269.153483,494.079045 270.335054,493.982981 271.512442,493.872299 C272.302945,493.797119 273.089264,493.709409 273.875584,493.625876 C275.050881,493.502664 276.224087,493.379452 277.39311,493.239534 C278.177339,493.145559 278.959476,493.043231 279.741613,492.940902 C280.912728,492.790542 282.083842,492.636005 283.252865,492.468939 C284.026637,492.358257 284.798318,492.239222 285.57209,492.120187 C286.745296,491.94059 287.918502,491.756817 289.089616,491.560513 C289.844567,491.433125 290.599518,491.299471 291.354468,491.165818 C292.542313,490.954896 293.732249,490.737709 294.918002,490.510081 C295.647858,490.368074 296.375622,490.223979 297.103386,490.077796 C298.307961,489.833461 299.508353,489.58286 300.708745,489.321819 C301.413505,489.16937 302.118265,489.012745 302.820934,488.854032 C304.050604,488.576283 305.276092,488.288093 306.499488,487.99155 C307.164514,487.82866 307.82954,487.667858 308.492474,487.500791 C309.753514,487.183364 311.01037,486.853407 312.265136,486.517186 C312.890427,486.350119 313.515719,486.183052 314.138919,486.011809 C315.439693,485.652615 316.736284,485.276715 318.030784,484.896638 C318.597519,484.729571 319.166346,484.564593 319.733082,484.393349 C321.094503,483.981948 322.451741,483.555927 323.804796,483.121554 C324.300429,482.960752 324.798152,482.806215 325.293785,482.643325 C326.736765,482.171362 328.173472,481.678515 329.608087,481.179403 C330.009612,481.039484 330.413228,480.903743 330.814753,480.761736 C332.387393,480.204151 333.953758,479.62777 335.515941,479.03886 C335.773168,478.940708 336.030395,478.848821 336.287622,478.75067 C338.10285,478.059431 339.909712,477.347309 341.706118,476.614304 C341.710301,476.612215 341.714483,476.612215 341.716575,476.610127 C368.066651,465.846851 392.568039,450.528918 414.07263,431.086525 L414.076812,431.082348 C417.171901,428.28398 420.206342,425.402078 423.098576,422.511823 C425.700124,419.916024 428.297488,417.203277 430.830023,414.436234 L561.593323,285.684151 L562.214432,218.427252 L493.060121,212.688509 Z" id="Fill-8" fill="#579F49"></path>
                </g>
            </g>
        </g>
    </g>
</svg>