<svg width="196" height="40" viewBox="0 0 196 40" fill="none" xmlns="http://www.w3.org/2000/svg">
<path id="Union" fill-rule="evenodd" clip-rule="evenodd" d="M41.9016 38.9783H50.5364C52.8887 38.9783 54.8024 37.0943 54.8024 34.78V4.19803C54.8024 1.88367 52.8887 -0.000289917 50.5364 -0.000289917H41.9016C40.6673 -0.000289917 39.4925 0.524838 38.6805 1.44246L33.0746 7.79542L37.844 13.1956L43.1846 7.14578H47.6482V31.8322H43.1846L16.3517 1.43975C15.5396 0.524838 14.3676 -0.000289917 13.1332 -0.000289917H4.49841C2.14616 -0.000289917 0.232422 1.88367 0.232422 4.19803V34.78C0.232422 37.0943 2.14616 38.9783 4.49841 38.9783H13.1305C14.3676 38.9783 15.5423 38.4532 16.3517 37.5355L21.9305 31.2205L17.161 25.8176L11.8502 31.8322H7.38661V7.14578H11.8502L38.6832 37.5355C39.4925 38.4532 40.6646 38.9783 41.9016 38.9783ZM120.469 8.42612H113.231H113.228V6.54216C113.228 4.7421 112.592 3.1992 111.314 1.91345C110.029 0.638526 108.486 -0.000289917 106.686 -0.000289917H105.66C105.338 -0.000289917 105.178 0.159414 105.178 0.481529V28.5678C105.178 32.0271 106.331 34.8097 108.632 36.9211C110.865 38.9702 113.745 39.9961 117.272 39.9961C118.417 39.9961 119.519 39.8743 120.574 39.6333C120.826 39.5819 120.951 39.4276 120.951 39.1651V32.0515C120.951 31.862 120.867 31.7104 120.68 31.6292C120.508 31.5546 120.282 31.6179 120.082 31.6738C119.998 31.6971 119.92 31.719 119.852 31.7294C118.939 31.9053 118.528 31.9432 117.272 31.9432C115.813 31.9432 114.749 31.6319 114.075 31.0093C113.512 30.4977 113.231 29.683 113.231 28.5678V16.4763H118.523C119.197 16.4763 119.768 16.2408 120.241 15.7671C120.715 15.2961 120.951 14.7277 120.951 14.0645V8.90794C120.951 8.58582 120.791 8.42612 120.469 8.42612ZM101.828 23.7024C101.828 19.2009 100.233 15.3545 97.0475 12.1685C93.8616 8.99338 90.0205 7.40446 85.5299 7.40446C81.0392 7.40446 77.1982 8.99338 74.0123 12.1685C70.8263 15.3545 69.232 19.2117 69.232 23.7024C69.232 28.193 70.8263 32.034 74.0123 35.22C77.1982 38.4087 81.0392 40.0003 85.5299 40.0003C90.0205 40.0003 93.8616 38.406 97.0475 35.22C100.233 32.034 101.828 28.2039 101.828 23.7024ZM77.2821 23.7024C77.2821 21.4097 78.0861 19.4635 79.6939 17.8664C81.3045 16.2586 83.248 15.4546 85.5299 15.4546C87.8118 15.4546 89.758 16.2586 91.3659 17.8664C92.9737 19.4662 93.7776 21.4205 93.7776 23.7024C93.7776 25.9842 92.9737 27.9278 91.3659 29.5356C89.7553 31.1435 87.8118 31.9474 85.5299 31.9474C83.248 31.9474 81.3018 31.1435 79.6939 29.5356C78.0861 27.9278 77.2821 25.9951 77.2821 23.7024ZM150.627 12.1685C151.834 13.3758 152.747 14.832 153.369 16.5401C154.043 18.3591 154.214 20.059 153.883 21.6371C153.572 23.115 152.857 24.2816 151.742 25.1343C150.649 25.968 149.325 26.3849 147.779 26.3849H131.3C131.712 27.5813 132.369 28.6315 133.276 29.5356C134.884 31.1435 136.83 31.9474 139.112 31.9474C141.394 31.9474 143.34 31.1435 144.948 29.5356C145.097 29.384 145.238 29.2298 145.37 29.0673C145.471 28.9564 145.595 28.9022 145.747 28.9022H153.873C154.043 28.9022 154.173 28.9726 154.262 29.1134C154.363 29.2541 154.384 29.4057 154.322 29.5654C153.499 31.7065 152.265 33.5905 150.63 35.22C147.444 38.406 143.603 40.0003 139.112 40.0003C134.621 40.0003 130.78 38.4087 127.595 35.22C124.409 32.034 122.814 28.193 122.814 23.7024C122.814 19.2117 124.409 15.3545 127.595 12.1685C130.78 8.99338 134.621 7.40446 139.112 7.40446C143.603 7.40446 147.444 8.99338 150.63 12.1685H150.627ZM139.109 15.4546C136.828 15.4546 134.884 16.2586 133.273 17.8664C132.48 18.6514 131.877 19.5609 131.465 20.5949H144.688C145.232 20.5949 145.592 20.3703 145.774 19.9182C146.006 19.3254 145.73 18.6406 144.945 17.8664C143.338 16.2586 141.391 15.4546 139.109 15.4546ZM158.188 -0.000289917C157.923 -0.000289917 157.706 0.216258 157.706 0.481529V38.4911C157.706 38.7563 157.923 38.9729 158.188 38.9729H165.275C165.54 38.9729 165.756 38.7563 165.756 38.4911V6.45824C165.756 2.89062 162.866 -0.000289917 159.298 -0.000289917H158.188ZM171.041 8.90403C171.041 8.63876 171.258 8.42221 171.523 8.42221H194.604C194.786 8.42221 194.973 8.48176 195.075 8.65771C195.17 8.81741 195.127 9.10163 195.038 9.26133L182.651 30.9161H191.6C192.225 30.9161 192.84 31.1353 193.294 31.5657C193.809 32.0503 194.063 32.6376 194.063 33.3279V38.4844C194.063 38.7497 193.847 38.9663 193.581 38.9663H169.593C169.401 38.9663 169.263 38.885 169.171 38.7253C169.082 38.5656 169.082 38.4032 169.171 38.2435L181.625 16.4724H177.438C173.905 16.4724 171.041 13.6085 171.041 10.0761V8.90403Z" fill="white"/>
</svg>
