<svg width="189" height="60" viewBox="0 0 189 60" fill="none" xmlns="http://www.w3.org/2000/svg">
<path id="Union" fill-rule="evenodd" clip-rule="evenodd" d="M63.2202 22.9197L47.4918 14.9053C46.8542 14.5812 46.1853 14.3278 45.4902 14.1553C45.1113 13.5491 44.6618 12.9899 44.1549 12.4855L31.672 0L19.1891 12.4829C18.6847 12.9872 18.2379 13.5491 17.8564 14.1527C17.1639 14.3278 16.4923 14.5786 15.8547 14.9027L0.128906 22.9197L8.14337 38.6481C8.46739 39.2857 8.86198 39.8815 9.32189 40.4303C9.27485 41.1437 9.30621 41.8597 9.41857 42.5652L12.1806 60L29.618 57.2379C30.3236 57.1256 31.0135 56.9348 31.6772 56.6709C32.3409 56.9374 33.0308 57.1282 33.7363 57.2379L51.1685 60L53.928 42.5652C54.0403 41.8597 54.0743 41.1437 54.0273 40.4303C54.4846 39.8815 54.8817 39.2831 55.2058 38.6481L63.2202 22.9197ZM52.7311 40.007C52.8331 40.7909 52.8226 41.5879 52.6998 42.3692L50.1337 58.5758L33.9297 56.0098C33.1484 55.8869 32.388 55.6518 31.6746 55.312C30.9612 55.6518 30.2008 55.8869 29.4194 56.0098L13.2154 58.5758L10.6494 42.3718C10.5239 41.5905 10.5135 40.7961 10.618 40.0096C10.0719 39.4347 9.61456 38.784 9.25656 38.0785L1.80915 23.4633L16.4296 16.0159C17.1351 15.6552 17.8877 15.3992 18.6638 15.2554C19.0427 14.5603 19.5183 13.9227 20.0775 13.3635L31.6746 1.76386L43.2742 13.3635C43.8335 13.9227 44.309 14.5603 44.6879 15.2554C45.4667 15.3992 46.2192 15.6552 46.9222 16.0159L61.54 23.4633L54.0926 38.0759C53.7346 38.7814 53.2747 39.4321 52.7311 40.0044V40.007ZM105.104 26.8274L105.106 26.83L105.108 26.8274L105.104 26.8274ZM105.104 26.8274L99.2888 19.0925C102.265 18.5516 104.429 16.712 104.429 13.5449C104.429 10.1374 101.75 7.89267 97.585 7.89267H89.4451V26.8274H91.5827V19.4662H96.9918L102.485 26.8222L105.104 26.8274ZM97.3943 17.556C100.235 17.556 102.265 16.0953 102.265 13.6337H102.263V13.6285C102.263 11.2767 100.478 9.87081 97.4204 9.87081H91.5801V17.556H97.3943ZM83.1698 7.89656H69.4822V26.8313H83.3031V24.8845H71.6171V18.2576H81.9521V16.3082H71.6171V9.84334H83.1698V7.89656ZM91.1531 35.5423H95.6398V36.8881H91.1531V35.5423ZM95.8751 43.5233H93.4606L93.458 43.5207V42.0783H97.477V46.045C96.335 47.0249 95.0232 47.5136 93.539 47.5136C92.0835 47.5136 90.8971 47.0458 89.9799 46.1103C89.0888 45.2036 88.6446 44.0486 88.6446 42.6453C88.6446 41.2943 89.1045 40.1393 90.0269 39.1829C90.9494 38.2239 92.1096 37.7457 93.5129 37.7457C94.9239 37.7457 96.1338 38.1717 97.1399 39.0261L96.0894 40.2804C95.2976 39.6089 94.417 39.2718 93.4449 39.2718C92.5826 39.2718 91.8561 39.5984 91.2682 40.2491C90.6802 40.9024 90.3849 41.6915 90.3849 42.6166C90.3849 43.6043 90.6828 44.417 91.276 45.0494C91.8692 45.6844 92.6427 46.0006 93.5965 46.0006C94.4771 46.0006 95.2375 45.7628 95.8751 45.2872V43.5233ZM75.3514 42.847C74.8837 42.4419 74.1258 42.1127 73.078 41.8592C72.1843 41.6449 71.5885 41.4359 71.2854 41.2294C70.8124 40.908 70.6896 40.2652 71.011 39.7922C71.0763 39.6981 71.1547 39.6145 71.2462 39.5466C71.5206 39.3297 71.8969 39.2226 72.3751 39.2226C73.2139 39.2226 74.071 39.5466 74.9464 40.1973L75.84 38.9377C74.868 38.1512 73.6529 37.7305 72.4038 37.7461C71.4578 37.7461 70.6817 38.0022 70.0781 38.5118C69.4745 39.0213 69.1714 39.6877 69.1714 40.5082C69.1714 41.3392 69.4457 41.9742 69.9971 42.4158C70.4492 42.7764 71.2253 43.09 72.3254 43.3539C73.1721 43.5525 73.7496 43.7589 74.0553 43.9758C74.3271 44.1744 74.4629 44.454 74.4603 44.8146C74.4708 45.1648 74.2983 45.4967 74.0083 45.6927C73.7051 45.9095 73.2975 46.0167 72.7827 46.0167C71.7374 46.0167 70.7392 45.6064 69.7933 44.7859L68.7924 45.9749C69.9187 46.9835 71.2357 47.4905 72.7435 47.4905C73.7522 47.4905 74.5701 47.2344 75.1946 46.7248C75.8191 46.2153 76.1327 45.5228 76.1327 44.6474C76.1301 43.8791 75.8714 43.2781 75.3566 42.847H75.3514ZM77.5964 47.3511L81.7644 37.8001H83.3061L87.474 47.3511H85.7154L84.7538 45.0646H80.2749L79.3002 47.3511H77.5964ZM82.5117 39.807L80.8863 43.5908L80.8837 43.596H84.1475L82.5117 39.807ZM102.019 37.8817H100.357V47.3543H107V45.8387H102.019V37.8817ZM109.208 37.8817H110.872V47.3517H109.208V37.8817ZM122.225 37.8817H120.185L115.68 42.6455V37.8817H114.015V47.3543H115.68V44.6079L117.153 43.0897L120.386 47.3543H122.401L118.29 41.9556L122.225 37.8817ZM134.677 43.5118H132.255V43.5066V42.0589H136.287V46.0387C135.143 47.0212 133.797 47.5125 132.336 47.5125C130.875 47.5125 129.684 47.0448 128.764 46.1066C127.873 45.1973 127.426 44.0371 127.426 42.6312C127.426 41.2802 127.888 40.1226 128.814 39.161C129.739 38.1993 130.894 37.7185 132.31 37.7185C133.726 37.7185 134.941 38.1471 135.95 39.0042L134.894 40.2637C134.1 39.5869 133.217 39.2498 132.242 39.2498C131.377 39.2498 130.648 39.5764 130.057 40.2297C129.467 40.8856 129.172 41.6774 129.172 42.6051C129.172 43.5954 129.469 44.4107 130.065 45.0457C130.658 45.6807 131.434 45.9995 132.391 45.9995C133.274 46.0021 134.037 45.7617 134.677 45.2835V43.5118ZM146.876 40.8842C146.876 39.9565 146.563 39.2223 145.938 38.6866C145.313 38.1483 144.454 37.8817 143.361 37.8817H139.139V47.3491H140.803V44.0487H142.886L145.212 47.3491H147.171L144.613 43.7639C146.118 43.3484 146.874 42.3894 146.871 40.8842H146.876ZM140.801 42.5749V39.3921H143.223C144.53 39.3921 145.183 39.92 145.185 40.9757C145.185 41.4617 145.01 41.8511 144.658 42.1385C144.305 42.4259 143.832 42.5723 143.239 42.5723H140.803L140.801 42.5749ZM155.162 45.2952C155.583 44.8431 155.792 44.1898 155.792 43.3327V37.8817H157.457V43.2517C157.457 44.634 157.088 45.6924 156.349 46.4319C155.646 47.1453 154.658 47.5006 153.385 47.5006C152.131 47.5006 151.151 47.1479 150.448 46.4449C149.719 45.7237 149.353 44.6863 149.353 43.3327V37.8817H151.018V43.2674C151.018 44.1323 151.23 44.8013 151.653 45.269C152.076 45.7368 152.664 45.972 153.411 45.972C154.159 45.972 154.742 45.7472 155.162 45.2952ZM166.464 42.4286C167.366 41.9608 167.815 41.2527 167.815 40.3041C167.815 39.5646 167.536 38.9766 166.976 38.5376C166.417 38.0986 165.659 37.8817 164.703 37.8817H160.454V47.3517H164.841C165.915 47.3517 166.767 47.127 167.4 46.6749C168.029 46.2228 168.346 45.58 168.346 44.7412C168.346 43.6228 167.716 42.8519 166.462 42.4286H166.464ZM162.095 39.3581H164.489C165.599 39.3581 166.153 39.7632 166.153 40.5759C166.153 41.4408 165.557 41.8746 164.368 41.8746H162.095V39.3581ZM164.854 45.8779H162.095V43.2804H164.734C166.033 43.2804 166.681 43.709 166.681 44.5661C166.681 45.4389 166.072 45.8779 164.854 45.8779ZM177.144 43.3327V37.8817H177.147H178.811V43.2517C178.811 44.634 178.44 45.6924 177.701 46.4319C176.998 47.1453 176.01 47.5006 174.738 47.5006C173.483 47.5006 172.503 47.1479 171.8 46.4449C171.071 45.7237 170.705 44.6863 170.705 43.3327V37.8817H172.37V43.2674C172.37 44.1323 172.582 44.8013 173.005 45.269C173.428 45.7368 174.016 45.972 174.764 45.972C175.511 45.972 176.096 45.7472 176.514 45.2952C176.935 44.8431 177.144 44.1898 177.144 43.3327ZM127.471 17.3326C127.471 11.9789 123.36 7.89267 117.411 7.89267H110.836V26.8274H117.411C123.36 26.8274 127.471 22.6889 127.471 17.3326ZM125.253 17.3862C125.253 21.6064 122.198 24.8545 117.408 24.8545H112.971V9.8682H117.408C122.195 9.8682 125.253 13.166 125.253 17.3862ZM132.74 7.89656H146.428V9.84334H134.878V16.3082H145.21V18.2576H134.878V24.8845H146.564V26.8313H132.74V7.89656ZM168.688 11.4922V26.8313H170.823V7.89656H168.662L161.763 18.2289L154.865 7.89656H152.701V26.8313H154.784V11.521L161.682 21.6364H161.79L168.688 11.4922ZM69.4822 31.5629H188.275V33.1622H69.4822V31.5629ZM169.343 52.0738H69.4822V53.673H169.343V52.0738ZM24.0442 27.1639C24.5773 27.2841 25.1182 27.352 25.6643 27.3651L25.6617 27.3677C25.0293 28.23 24.2036 28.9329 23.2498 29.4164L22.0321 30.0383L22.654 31.256C24.3656 34.6191 23.0277 38.7348 19.6646 40.449C18.1124 41.2382 16.3172 41.408 14.6474 40.9194C14.6657 40.4568 14.7624 40.0048 14.9322 39.5762C17.8145 40.4751 20.8823 38.8654 21.7812 35.9832C22.2072 34.6217 22.0817 33.1479 21.4363 31.8753L20.1951 29.4399L22.6305 28.1987C23.1531 27.9321 23.6313 27.582 24.0442 27.1639ZM40.8886 16.8851C41.1447 17.2692 41.3328 17.6926 41.4478 18.1394V18.142C38.5864 19.1089 37.0499 22.2107 38.0168 25.072C38.4741 26.4283 39.4435 27.5493 40.7187 28.1973L43.1542 29.4386L41.9129 31.874C41.6438 32.3966 41.4635 32.9611 41.3746 33.5412C40.8755 33.7555 40.3973 34.0168 39.9479 34.3251C39.9531 33.2564 40.2066 32.2006 40.6952 31.2495L41.3145 30.0318L40.0968 29.4098C36.7311 27.6956 35.3958 23.5773 37.11 20.2142C37.8992 18.6647 39.2502 17.4731 40.8886 16.8851ZM30.7082 24.0029L31.6751 23.0387L32.6419 24.0055C33.3971 24.7634 34.3222 25.3304 35.3387 25.6649C35.1845 25.1423 35.08 24.6066 35.0303 24.063C34.5051 23.7991 34.0243 23.4542 33.6088 23.0361L31.6751 21.1024L29.7414 23.0361C28.7327 24.0447 27.3687 24.6196 25.9393 24.6379C22.9185 24.6745 20.4413 22.2548 20.4047 19.2366C19.9448 19.2078 19.4822 19.2549 19.0406 19.3803C19.0955 21.118 19.8089 22.7722 21.0371 24.0003C23.7051 26.6709 28.035 26.6709 30.7056 24.0029H30.7082ZM37.6296 41.3718L37.8464 40.0208H37.8438C38.4344 36.2918 41.936 33.7467 45.6649 34.3372C47.3844 34.609 48.9339 35.5288 50.0001 36.9033C49.7153 37.2665 49.3703 37.5775 48.981 37.8231C47.1753 35.4008 43.7495 34.8991 41.3271 36.7047C40.1826 37.5566 39.4169 38.824 39.1922 40.2324L38.7663 42.9344L36.0669 42.5059C35.4842 42.4144 34.8936 42.4144 34.3135 42.5111C33.9555 42.1008 33.5557 41.7272 33.1219 41.3953C34.141 41.0686 35.2229 40.985 36.2786 41.1549L37.6296 41.3718ZM33.7895 51.7525C34.7695 50.3127 35.164 48.554 34.8923 46.8346C34.3017 43.1056 30.8001 40.5605 27.0686 41.1536L25.7176 41.3705L25.5007 40.0195C25.3361 38.9638 24.9232 37.9604 24.2961 37.0928C24.1131 37.6076 23.8806 38.1015 23.601 38.5693C23.8727 39.0919 24.0556 39.6537 24.1471 40.2338L24.5757 42.9358L27.2829 42.5099C28.6913 42.2877 30.1338 42.6222 31.2992 43.448C33.7634 45.1935 34.3461 48.6063 32.6006 51.0705C32.956 51.3657 33.3558 51.5957 33.7895 51.7551V51.7525ZM23.9399 13.3655L22.0062 15.2992L21.9775 15.328C21.447 15.2078 20.9061 15.1398 20.36 15.1242C20.569 14.8419 20.7937 14.5754 21.042 14.3298L22.0088 13.3629L31.6722 3.69957L41.3381 13.3708L42.305 14.3376C44.9756 17.0082 44.973 21.3382 42.3024 24.0088C41.5916 24.7196 40.7319 25.2657 39.7859 25.6054C39.5299 25.2213 39.3417 24.798 39.2267 24.3511C42.0881 23.3816 43.622 20.2746 42.6525 17.4133C42.3834 16.6189 41.9339 15.895 41.3407 15.3019L39.407 13.3681L31.6722 5.63328L23.9399 13.3655ZM49.997 41.9394L49.5684 44.6388L47.8542 55.4415L37.0515 53.7299L34.3522 53.3013C33.5238 53.1707 32.7373 52.8492 32.0526 52.3632C29.5858 50.6176 29.0031 47.2049 30.7461 44.7381C30.3907 44.4454 29.9883 44.2129 29.5571 44.0508C28.99 44.8818 28.6164 45.8304 28.457 46.8234C27.8638 50.5549 30.409 54.0591 34.1379 54.6523L35.4889 54.8666L48.9909 57.0067L51.1285 43.5021L51.3453 42.1511C51.4002 41.8062 51.429 41.4586 51.429 41.1111C50.9795 41.4194 50.5013 41.6807 49.9996 41.895L49.9944 41.9368L49.997 41.9394ZM46.303 17.2319L47.5207 17.8538V17.8486L59.7031 24.0547L53.4969 36.2345L52.875 37.4522C51.1582 40.8153 47.0399 42.1506 43.6742 40.4338C42.7805 39.9765 41.9966 39.3285 41.3799 38.5341C41.6673 38.1761 42.0096 37.8651 42.399 37.6195C44.2073 40.0418 47.6331 40.5383 50.0555 38.7327C50.727 38.2309 51.2758 37.5803 51.6573 36.8329L52.8985 34.3975L57.8635 24.6531L48.1191 19.6882L45.6837 18.447L45.6445 18.4287C45.5975 17.8851 45.4956 17.3494 45.3414 16.8268C45.6706 16.9392 45.9921 17.0725 46.303 17.2319ZM10.4504 34.4048L5.48547 24.6604L15.2298 19.6955L17.6653 18.4569C18.4126 18.0754 19.2384 17.8715 20.0798 17.8611C23.1006 17.8245 25.5804 20.2416 25.617 23.2624C26.0769 23.2912 26.5368 23.2415 26.9811 23.1187C26.9497 22.1126 26.6962 21.1249 26.2389 20.2286C24.5247 16.8629 20.409 15.5249 17.0433 17.2392L15.8256 17.8585L3.64583 24.0646L9.85462 36.2444L10.4739 37.4621C10.6333 37.7731 10.8136 38.071 11.0175 38.3532C11.1978 37.841 11.4303 37.3446 11.7099 36.8794L11.6916 36.8428L10.4504 34.4074V34.4048ZM28.9898 53.3068L29.0316 53.3015H29.0394C29.3948 53.7118 29.7946 54.0855 30.2258 54.4173C29.8939 54.5219 29.5542 54.6029 29.2093 54.6577L27.8583 54.8746L14.3563 57.0096L12.2161 43.5075L12.0018 42.1565C11.4139 38.425 13.9591 34.9234 17.6906 34.3355C18.6836 34.1787 19.6975 34.244 20.6643 34.5236C20.6461 34.9861 20.5468 35.4382 20.3769 35.8668C17.492 34.9704 14.4242 36.5827 13.5279 39.4676C13.277 40.2699 13.2169 41.1165 13.3476 41.9449L13.7788 44.6416L15.4904 55.4469L26.2904 53.7353L28.9898 53.3068Z" fill="white"/>
</svg>
