<svg width="189" height="52" viewBox="0 0 189 52" fill="none" xmlns="http://www.w3.org/2000/svg">
<path id="Union" fill-rule="evenodd" clip-rule="evenodd" d="M105.908 0.443268C105.908 0.14307 106.057 -0.00050354 106.352 -0.00050354H112.917C113.217 -0.00050354 113.366 0.148291 113.366 0.443268V38.4223C113.366 38.7225 113.217 38.8661 112.917 38.8661H111.967C110.04 38.8661 108.472 38.1091 107.26 36.6028C104.916 38.746 102.058 39.8163 98.6955 39.8163C94.5319 39.8163 90.9739 38.3414 88.0189 35.389C85.0613 32.4392 83.5916 28.8812 83.5916 24.7176C83.5916 20.554 85.0665 16.9855 88.0189 14.0279C90.9687 11.0834 94.5267 9.61368 98.6955 9.61368C101.403 9.61368 103.809 10.3315 105.903 11.7647V0.443268H105.908ZM93.292 19.3036C91.804 20.7863 91.0548 22.5849 91.0548 24.7124C91.0548 26.8399 91.7988 28.6254 93.292 30.1212C94.7799 31.6091 96.5863 32.3583 98.7008 32.3583C100.815 32.3583 102.614 31.6143 104.11 30.1212C105.597 28.6332 106.347 26.8268 106.347 24.7124C106.347 22.5979 105.603 20.7863 104.11 19.3036C102.622 17.8156 100.815 17.0664 98.7008 17.0664C96.5863 17.0664 94.7799 17.8104 93.292 19.3036ZM28.6497 10.5631H29.5999C29.9001 10.5631 30.0489 10.7119 30.0489 11.0068V38.4215C30.0489 38.7217 29.9001 38.8653 29.5999 38.8653H28.6497C26.7232 38.8653 25.1543 38.1082 23.9431 36.602C21.599 38.7452 18.7405 39.8155 15.3783 39.8155C11.2147 39.8155 7.65669 38.3406 4.70169 35.3882C1.7493 32.4332 0.274414 28.8752 0.274414 24.7115C0.274414 20.5479 1.7493 16.9795 4.70169 14.0219C7.65147 11.0773 11.2095 9.60765 15.3783 9.60765C18.7405 9.60765 21.5937 10.6779 23.9431 12.8211C25.157 11.3149 26.7258 10.5578 28.6497 10.5578V10.5631ZM9.96952 19.3028C8.48158 20.7855 7.73239 22.5841 7.73239 24.7115C7.73239 26.839 8.47636 28.6246 9.96952 30.1203C11.4575 31.6083 13.2639 32.3575 15.3783 32.3575C17.4928 32.3575 19.2913 31.6135 20.7871 30.1203C22.2751 28.6324 23.0242 26.826 23.0242 24.7115C23.0242 22.5971 22.2803 20.7855 20.7871 19.3028C19.2992 17.8148 17.4928 17.0656 15.3783 17.0656C13.2639 17.0656 11.4575 17.8096 9.96952 19.3028ZM35.0676 20.1851C35.0676 16.9847 36.1378 14.403 38.2679 12.4452C40.338 10.5578 43.0059 9.60765 46.2767 9.60765C47.3392 9.60765 48.3572 9.71467 49.3335 9.92612C49.5658 9.98355 49.6833 10.1271 49.6833 10.3568V17.3397C49.6833 17.5277 49.6024 17.6582 49.4458 17.7469C49.2761 17.8279 49.1195 17.8226 48.9707 17.7208C48.339 17.2823 47.4384 17.0656 46.2767 17.0656C44.9271 17.0656 43.9378 17.3528 43.3139 17.9166C42.7944 18.3969 42.5334 19.154 42.5334 20.1799V38.411C42.5334 38.7112 42.3846 38.8548 42.0896 38.8548H35.5244C35.2242 38.8548 35.0754 38.706 35.0754 38.411V20.1799L35.0702 20.1851H35.0676ZM80.2843 10.5656H79.3342C77.4103 10.5656 75.8414 11.3226 74.6276 12.8288C72.2782 10.6857 69.425 9.61541 66.0628 9.61541C61.8939 9.61541 58.3359 11.0851 55.3861 14.0296C52.4338 16.9872 50.9589 20.5557 50.9589 24.7193C50.9589 28.8829 52.4364 32.4409 55.3861 35.3907C58.3411 38.3431 61.8991 39.818 66.0628 39.818C69.425 39.818 72.2834 38.7477 74.6276 36.6046C75.8388 38.1108 77.4077 38.8678 79.3342 38.8678H80.2843C80.5845 38.8678 80.7333 38.7242 80.7333 38.424V11.0094C80.7333 10.7144 80.5845 10.5656 80.2843 10.5656ZM58.4168 24.7193C58.4168 22.5918 59.166 20.7932 60.654 19.3105C62.1419 17.8174 63.9483 17.0734 66.0628 17.0734C68.1772 17.0734 69.9836 17.8226 71.4716 19.3105C72.9647 20.7932 73.7087 22.6049 73.7087 24.7193C73.7087 26.8338 72.9595 28.6402 71.4716 30.1281C69.9758 31.6213 68.1772 32.3652 66.0628 32.3652C63.9483 32.3652 62.1419 31.6161 60.654 30.1281C59.1608 28.6323 58.4168 26.8468 58.4168 24.7193ZM149.87 -0.00050354H156.44C156.685 -0.00050354 156.884 0.19818 156.884 0.443268V38.4223C156.884 38.6674 156.685 38.8661 156.44 38.8661H149.87C149.625 38.8661 149.426 38.6674 149.426 38.4223V0.443268C149.426 0.19818 149.625 -0.00050354 149.87 -0.00050354ZM161.897 11.0064C161.897 10.7062 162.046 10.5626 162.346 10.5626H167.123C167.737 10.5626 168.261 10.7819 168.705 11.2179C169.144 11.6564 169.36 12.1811 169.36 12.7998V29.2298C169.36 30.086 169.679 30.749 170.324 31.2111C171.368 31.9733 172.942 32.3544 175.061 32.3544C177.181 32.3544 178.745 31.9733 179.799 31.2111C180.444 30.749 180.763 30.086 180.763 29.2298V11.0064C180.763 10.7062 180.911 10.5626 181.212 10.5626H187.777C188.077 10.5626 188.221 10.7114 188.221 11.0064V29.2245C188.221 32.6077 186.871 35.2755 184.169 37.2464C181.812 38.9588 178.773 39.815 175.061 39.815C171.349 39.815 168.311 38.9588 165.954 37.2464C163.252 35.2833 161.902 32.6077 161.902 29.2245V11.0064H161.897ZM146.675 21.5865C146.675 24.8234 145.783 27.6949 143.995 30.2009H143.989L137.482 44.8741V48.6252C137.482 50.4812 135.962 52.0005 134.106 52.0005H129.037C127.181 52.0005 125.662 50.4812 125.662 48.6252V44.8741L119.154 30.2009C117.373 27.6949 116.473 24.826 116.473 21.5865C116.473 17.4098 117.95 13.8466 120.9 10.8968C123.855 7.95224 127.413 6.48257 131.577 6.48257C135.74 6.48257 139.298 7.95224 142.248 10.8968C145.201 13.8544 146.675 17.4176 146.675 21.5865ZM135.155 36.2929L132.919 44.1066H130.238L128 36.291C129.139 36.5546 130.332 36.6904 131.582 36.6904C132.829 36.6904 134.014 36.5527 135.155 36.2929ZM121.159 32.5033L126.304 44.1066H129.311L126.99 36.0169C124.842 35.3486 122.897 34.1713 121.159 32.5033ZM136.171 36.0169L133.85 44.1066H136.858L142.003 32.5033C140.259 34.1792 138.322 35.3486 136.171 36.0169Z" fill="white"/>
</svg>
