<svg width="193" height="36" viewBox="0 0 193 36" fill="none" xmlns="http://www.w3.org/2000/svg">
<path id="Union" fill-rule="evenodd" clip-rule="evenodd" d="M22.4857 1.86183C22.9075 1.19703 23.4388 0.729806 24.0716 0.454809C24.7043 0.153113 25.3584 0.000930786 26.0232 0.000930786C26.8028 0.000930786 27.4436 0.289277 27.9242 0.865969C28.4101 1.41062 28.6477 2.15285 28.6477 3.0873V24.6252L43.7939 1.86183C44.2157 1.19703 44.7337 0.729806 45.3371 0.454809C45.9698 0.153113 46.6373 0.000930786 47.3341 0.000930786C48.1137 0.000930786 48.7545 0.289277 49.2351 0.865969C49.721 1.41062 49.9586 2.15285 49.9586 3.0873V35.6464H43.7966V11.7484L30.02 33.5105C29.5021 34.3301 28.9441 34.8855 28.3434 35.1872C27.7346 35.4889 27.1152 35.641 26.4878 35.641C25.9431 35.641 25.4252 35.5503 24.9446 35.3714C24.4587 35.1605 24.0369 34.8721 23.6711 34.5063C23.3053 34.1406 23.025 33.7187 22.814 33.2382C22.6031 32.7522 22.5017 32.2076 22.5017 31.6069V11.7484L7.34215 35.641H0L22.4857 1.86183ZM71.4061 35.6427H53.8597V0.274895H71.1364V6.44497H60.0298V14.6468H69.5879V20.7715H60.0298V29.4726H71.4061V35.6427ZM74.3058 35.6373V35.6427H74.3031L74.2978 35.6373H74.3058ZM74.3058 35.6373V0.274895H84.462C87.0918 0.274895 89.492 0.696734 91.6733 1.54308C93.8493 2.38676 95.7235 3.58554 97.2907 5.12605C98.8659 6.6372 100.086 8.45271 100.964 10.5646C101.84 12.6818 102.275 15.0259 102.275 17.5917C102.275 20.1574 101.821 22.5069 100.911 24.7069C100.035 26.9149 98.8126 28.8345 97.2373 30.4658C95.6621 32.0651 93.7745 33.3386 91.5692 34.273C89.3932 35.1808 87.0197 35.6373 84.454 35.6373H74.3058ZM80.4679 29.4753V6.44764H84.462C86.16 6.44764 87.7139 6.75467 89.1343 7.35539C90.5787 7.92675 91.8202 8.72504 92.8507 9.75561C93.8813 10.7782 94.6796 12.0197 95.2563 13.4721C95.825 14.8924 96.1133 16.4677 96.1133 18.099C96.1133 19.7302 95.833 21.2414 95.2563 22.6351C94.7143 24.0234 93.9267 25.2329 92.8961 26.2634C91.8655 27.2539 90.6427 28.0416 89.2224 28.6183C87.802 29.1869 86.2081 29.4753 84.462 29.4753H80.4679ZM111.662 6.48632H105.5V0.278865H111.662V6.48632ZM111.662 35.6386H105.5V8.721H111.662V35.6386ZM115.692 35.6427H133.239V29.4726H121.86V20.7715H131.426V14.6468H121.86V6.44497H132.969V0.274895H115.692V35.6427ZM142.084 11.1132V35.6413H136.146V3.35723C136.146 2.42277 136.402 1.68055 136.92 1.13589C137.433 0.559202 138.175 0.278865 139.142 0.278865C139.742 0.278865 140.3 0.412359 140.818 0.687355C141.363 0.930314 141.905 1.39754 142.45 2.09438L159.726 24.8043V0.278865H165.619V32.6003C165.619 34.8644 164.845 35.9991 163.309 35.9991C162.554 35.9991 161.889 35.8335 161.32 35.4998C160.744 35.134 160.111 34.592 159.414 33.8685L142.097 11.1079L142.084 11.1132ZM183.203 35.6427V6.44497H192.232V0.274895H168.019V6.44497H177.041V35.6427H183.203Z" fill="white"/>
</svg>
